<?xml version="1.0" encoding="UTF-8"?>
<svg width="256" height="230" viewBox="0 0 256 230"
     xmlns="http://www.w3.org/2000/svg"
     xmlns:xlink="http://www.w3.org/1999/xlink"
     role="img" aria-labelledby="t d">
  <title id="t">IVL icon — Signal Flow (dark header version)</title>
  <desc id="d">Updated for dark background: orange signal dot, slightly brighter rail blue, adjusted glow.</desc>

  <defs>
    <filter id="neon" x="-50%" y="-50%" width="200%" height="200%">
      <feGaussianBlur in="SourceGraphic" stdDeviation="2.6" result="b"/>
      <feColorMatrix in="b" type="matrix"
        values="0 0 0 0 0
                0 0 0 0 0.88
                0 0 0 0 1
                0 0 0 1 0"/>
      <feMerge>
        <feMergeNode/>
        <feMergeNode in="SourceGraphic"/>
      </feMerge>
    </filter>

    <!-- motion path -->
    <path id="signalPath"
          d="M 94,53
             Q 110,30 132,21
             H 162
             Q 180,16 196,8"
          fill="none" stroke="none"/>
  </defs>

  <!-- main group -->
  <g transform="translate(24,16)">
    <!-- top rail -->
    <path d="M32,15 H162"
          fill="none" stroke="#2C63FF" stroke-width="8.5"
          stroke-linecap="round" stroke-linejoin="round"/>

    <!-- outline path -->
    <path d="M202,37
             V127
             a20,20 0 0 1 -20,20
             h-84
             l-26,26
             a5,5 0 0 1 -9,-3
             v-22
             H32
             a20,20 0 0 1 -20,-20
             V35
             a20,20 0 0 1 20,-20
             h66"
          fill="none" stroke="#2C63FF" stroke-width="8.5"
          stroke-linecap="round" stroke-linejoin="round"/>

    <!-- bars -->
    <rect x="28"  y="93" width="28" height="50" rx="6" fill="#1F50B8"/>
    <rect x="80"  y="53" width="28" height="88" rx="6" fill="#1F50B8"/>
    <rect x="132" y="89" width="28" height="52" rx="6" fill="#1F50B8"/>

    <!-- moving orange signal dot -->
    <circle r="5" fill="#F68B1F">
      <animateMotion dur="3s" repeatCount="indefinite"
                     keySplines=".25 .1 .25 1" keyTimes="0;1" calcMode="spline">
        <mpath xlink:href="#signalPath"/>
      </animateMotion>
      <animate attributeName="opacity" values="0;1;1;0"
               keyTimes="0;0.12;0.88;1" dur="3s" repeatCount="indefinite"/>
    </circle>

    <!-- plus sign with glow -->
    <g transform="translate(200,8)" filter="url(#neon)">
      <rect x="-4.25" y="-22" width="8.5" height="44" rx="4.25" fill="#27E6FF"/>
      <rect x="-22"  y="-4.25" width="44" height="8.5" rx="4.25" fill="#27E6FF"/>
      <animate attributeName="opacity" values="1;1;1.3;1"
               keyTimes="0;0.86;0.92;1" dur="3s" repeatCount="indefinite"/>
      <animateTransform attributeName="transform" type="scale"
                        values="1;1;1.06;1"
                        keyTimes="0;0.86;0.92;1"
                        dur="3s" repeatCount="indefinite" additive="sum"/>
    </g>
  </g>
</svg>
